<svg version="1.2" xmlns="http://www.w3.org/2000/svg" viewBox="0 0 1458 1507" width="1458" height="1507"><style>.a{fill:#e7d5b7}</style><path class="a" d="m1391.2 1167.8c-82.7 65.5-195.7 18.3-287.9 53.2-112.1 42.5-142 169.9-229 241.2-95.5 78.2-193.3 41.9-279.5-29.5-39.7-32.8-75.3-85.4-131.5-90.7-48.6-4.6-75.9 33.9-117.9 47.5-224.1 72.6-420.1-158.1-317.3-369 53.6-110 168.7-164.2 180.3-295.7 10-113.4 5-178.9 81.6-270.8 72.9-87.4 71.6-166.5 115-269.9 44.4-105.5 153.4-219.2 275.7-172.6 112.8 42.9 162.2 89.7 293.9 72 132.7-17.7 226.9-51.3 335.9 50.7 79.4 74.3 155.6 192.2 144 305.3-13.3 128.3-97.3 147.7-184.2 208.4-212.8 148.8 378.1 316.1 120.9 519.9z"/></svg>