<svg version="1.2" xmlns="http://www.w3.org/2000/svg" viewBox="0 0 1290 1076" width="1290" height="1076"><style>.a{fill:#e7d5b7}</style><path class="a" d="m442.9 0.8c79.4 0.4 123.5 81.3 194 104.1 85.9 27.7 163.3-33 247.9-34 92.8-1 133.1 66.2 150.2 148.7 7.9 38 4.1 85.6 34.6 115.1 26.4 25.6 60.5 15.8 91.6 27.6 165.7 62.7 172.3 290.4 12.9 365.9-83.2 39.4-176.2 17.1-244.9 88.9-59.2 61.9-86.9 102.8-175.2 120.7-83.8 17.1-120.2 64.2-194.3 104.5-75.7 41.1-193.1 56.6-243-28.3-46.1-78.2-53.1-128.9-138.7-180.4-86.3-52-157.4-76.6-173.5-187.7-11.6-81-1-186.1 59-247 68.1-69.2 126.5-41.1 206-35.9 194.9 12.7-73.4-363.4 173.4-362.2z"/></svg>