<svg version="1.2" xmlns="http://www.w3.org/2000/svg" viewBox="0 0 1079 971" width="1079" height="971"><style>.a{fill:#e7d5b7}</style><path class="a" d="m380.4 944.9c-59.7-42.9-49.5-127.6-90.5-182.7-49.8-67-140.8-62.7-205.1-107.4-70.5-49-64.8-121.4-33.5-192.8 14.5-32.9 42.9-66.8 35.8-105.4-6.2-33.5-37.2-44.4-54.3-70-91.3-136.2 25.9-311.5 186.7-282.9 83.8 14.9 142 81.7 232.3 64.4 77.9-14.9 120.7-30.8 196.9 3 72.4 32.1 125.2 16.1 202.6 25.5 79.1 9.6 176 60.9 168.1 151.8-7.2 83.7-29.2 125.7 7.7 210.6 37.2 85.5 77.6 142.2 30.1 234.6-34.7 67.4-99.1 141-177.1 154.7-88.4 15.6-117.4-37-174.6-83.5-140.1-114.2-139.7 313.5-325.1 180.1z"/></svg>