<svg version="1.2" xmlns="http://www.w3.org/2000/svg" viewBox="0 0 1290 1075" width="1290" height="1075"><style>.a{fill:#e7d5b7}</style><path class="a" d="m442.5-0.1c79.4 0.4 123.5 81.3 194.1 104.1 85.8 27.8 163.2-33 247.8-33.9 92.8-1.1 133.2 66.2 150.3 148.6 7.9 38 4.1 85.7 34.5 115.1 26.5 25.6 60.6 15.9 91.6 27.6 165.7 62.7 172.4 290.4 13 365.9-83.2 39.4-176.3 17.2-244.9 88.9-59.2 61.9-87 102.8-175.2 120.7-83.9 17.1-120.3 64.2-194.4 104.5-75.6 41.1-193 56.7-243-28.2-46-78.2-53-128.9-138.7-180.5-86.2-52-157.3-76.5-173.4-187.7-11.7-80.9-1.1-186 58.9-247 68.1-69.2 126.6-41.1 206.1-35.9 194.9 12.7-73.4-363.4 173.3-362.2z"/></svg>