<svg version="1.2" xmlns="http://www.w3.org/2000/svg" viewBox="0 0 1716 1429" width="1716" height="1429"><style>.a{fill:#e7d5b7}</style><path class="a" d="m1126.9-0.1c-105.6 0.6-164.2 108-258.1 138.3-114.1 36.9-217-43.8-329.5-45.1-123.4-1.4-177 88-199.8 197.6-10.4 50.5-5.4 113.8-45.9 153-35.2 34-80.5 21-121.8 36.7-220.3 83.2-229.1 385.9-17.2 486.3 110.6 52.4 234.3 22.8 325.6 118.2 78.7 82.2 115.6 136.5 233 160.4 111.5 22.7 159.9 85.3 258.4 138.8 100.6 54.7 256.6 75.3 323.1-37.5 61.2-103.9 70.5-171.3 184.4-239.8 114.7-69.1 209.2-101.8 230.6-249.5 15.5-107.6 1.4-247.3-78.4-328.3-90.5-91.9-168.2-54.6-274-47.7-259.1 16.9 97.6-483-230.4-481.4z"/></svg>