<svg version="1.2" xmlns="http://www.w3.org/2000/svg" viewBox="0 0 1340 1144" width="1340" height="1144"><style>.a{fill:#e7d5b7}</style><path class="a" d="m531.2 25.9c-76 45.9-72 148.7-126.6 211-66.5 75.8-175.5 61.9-257.2 109.5-89.7 52.1-89.9 139.7-59 228.6 14.2 40.9 45.1 84.4 32.8 130.2-10.7 39.6-49 49.8-72.1 78.9-123.1 155 1 377.1 197.2 358.2 102.4-9.9 178.9-84.5 285.9-55 92.2 25.4 142.3 48.6 237.3 15.3 90.2-31.7 152.1-7.4 246.2-11.2 96.2-3.9 217.7-56.3 217-166.3-0.6-101.4-22.9-154 29.7-252.5 53-99.3 107.1-163.5 58.9-279.3-35.2-84.3-105.6-179-198.1-203.1-104.9-27.3-144.9 33.2-218.3 83.7-179.7 123.8-137.7-390.5-373.7-248z"/></svg>